# xmcd
#
# Track frame offsets:
#	182
#	12032
#	29207
#	42257
#	63482
#	87632
#	122507
#	139307
#	155732
#	178157
#	197657
#	221882
#	242807
#
# Disc length: 3521 seconds
#
# Revision: 0
# Processed by: cddbd v1.4PL0 Copyright (c) Steve Scherf et al.
# Submitted via: audiograbber 1.81.03
#
DISCID=c60dbf0d
DTITLE=Uakti - Trilobyte
DYEAR=1996
DGENRE=
TTITLE0=Raça
TTITLE1=Lágrima do sul
TTITLE2=Xenitemeno mu puli
TTITLE3=O segredo das 17 nozes
TTITLE4=Arrumação
TTITLE5=Música para um antigo templo grego
TTITLE6=Trilobita II
TTITLE7=Krishna I
TTITLE8=Krishna II
TTITLE9=Krishna III
TTITLE10=Parque das emas
TTITLE11=Haxi
TTITLE12=Onze
EXTD=
EXTT0=
EXTT1=
EXTT2=
EXTT3=
EXTT4=
EXTT5=
EXTT6=
EXTT7=
EXTT8=
EXTT9=
EXTT10=
EXTT11=
EXTT12=
PLAYORDER=
